<?xml version="1.0" encoding="UTF-8"?>
<svg id="Calque_1" data-name="Calque 1" xmlns="http://www.w3.org/2000/svg" width="474" height="463" viewBox="0 0 474 463">
  <defs>
    <style>
      .cls-1 {
        fill: #fff;
      }
    </style>
  </defs>
  <path d="m285.26,215.9c0-5.26-.33-10.23.09-15.14.39-4.6-1.39-5.79-5.65-5.51-4.92.32-9.87.07-15.39.07,0-6.78-.16-12.91.17-19.01.05-.95,2.3-2.48,3.59-2.55,5.46-.29,10.94-.12,16.99-.12v-21.09h22.34v20.77h20.68v22c-4.56,0-8.98,0-13.39,0q-7.1,0-7.1,6.89c0,4.46,0,8.91,0,13.67h-22.32Z"/>
  <path d="m197.92,173.42c0,6.89-.08,12.87.03,18.84.06,3-1.78,3.05-3.93,3.03-5.45-.04-10.91-.01-16.95-.01v20.61h-22.36c0-5.74-.12-11.19.05-16.63.1-3.07-1.07-4.1-4.08-4.01-5.29.17-10.59.05-16.24.05v-21.73h20.13v-21.1h22.39v20.94h20.95Z"/>
  <path class="cls-1" d="m349.76,140.83v-67.78h-54.64v-33.09h-116.73c0,9.73-.16,19.04.08,28.34.09,3.79-1.22,4.82-4.9,4.78-14.67-.17-29.33-.06-44-.03-1.76,0-3.53.16-5.86.28v67.92h-29.41v94.28h29.8v26.74h54.34v51.14h20.41v-34.69c2.38,0,4.16-.06,5.94.01,5.26.21,12.2-1.42,15.26,1.3,2.65,2.36.98,9.67,1.06,14.79.1,6.28.02,12.56.02,19.35,8.72,0,16.69,0,24.65,0q6.44,0,6.45-6.56c0-9.45,0-18.91,0-28.51h21.88c0,2.37,0,4.33,0,6.29-.02,8.33-.15,16.67.07,25,.03,1.26,1.64,3.49,2.61,3.54,5.94.33,11.9.17,18.37.17,0-2.74,0-4.53,0-6.33,0-13.33.17-26.67-.08-40-.08-4.29.96-5.8,5.52-5.71,14.5.29,29,.12,43.5.09,1.77,0,3.53-.17,5.79-.29v-26.47h29.28v-94.58h-29.39Zm-155.73,54.47c-5.45-.04-10.91-.01-16.95-.01v20.61h-22.36c0-5.74-.12-11.19.05-16.63.1-3.07-1.07-4.1-4.08-4.01-5.29.17-10.59.05-16.24.05v-21.73h20.13v-21.1h22.39v20.94h20.95c0,6.89-.08,12.87.03,18.84.06,3-1.78,3.05-3.93,3.03Zm49.08,50.23h-21.94v-49.86c6.65,0,12.93-.11,19.2.12.94.03,2.61,1.66,2.62,2.57.16,15.6.12,31.2.12,47.18Zm84.97-50.2c-4.56,0-8.98,0-13.39,0q-7.1,0-7.1,6.89c0,4.46,0,8.91,0,13.67h-22.32c0-5.26-.33-10.23.09-15.14.39-4.6-1.39-5.79-5.65-5.51-4.92.32-9.87.07-15.39.07,0-6.78-.16-12.91.17-19.01.05-.95,2.3-2.48,3.59-2.55,5.46-.29,10.94-.12,16.99-.12v-21.09h22.34v20.77h20.68v22Z"/>
</svg>