<?xml version="1.0" encoding="UTF-8"?>
<svg id="Calque_1" data-name="Calque 1" xmlns="http://www.w3.org/2000/svg" width="474" height="463" viewBox="0 0 474 463">
  <defs>
    <style>
      .cls-1 {
        fill: #fff;
      }
    </style>
  </defs>
  <path class="cls-1" d="m170.58,423.43v-27.57h-31.43c0-2.32,0-4.1,0-5.89,0-35.49.1-70.99-.12-106.48-.03-4.82,1.56-5.98,5.95-5.72,5.43.31,10.89.08,16.92.08,0,2.36-.01,4.15,0,5.93.17,21.33.41,42.66.43,63.99,0,3.6.89,5.04,4.73,4.96,10.45-.22,20.91-.08,32-.08,0-5.77.18-10.89-.06-15.99-.17-3.58.81-5.22,4.72-4.93,4.14.31,8.35.31,12.49,0,3.93-.31,4.88,1.35,4.71,4.92-.24,5.11-.06,10.23-.06,15.68h29.5v-20.27h23.88c0,5.68-.17,11.27.12,16.84.07,1.29,1.66,3.57,2.6,3.59,10.13.26,20.26.16,31.07.16v-74.44h23.69v117.52h-30.32v27.72h-130.83Z"/>
</svg>